<svg aria-hidden="true" style="position: absolute; width: 0; height: 0; overflow: hidden;" version="1.1" xmlns="http://www.w3.org/2000/svg" xmlns:xlink="http://www.w3.org/1999/xlink">
<defs>
<symbol id="icon-antenna" viewBox="0 0 64 32">
<path fill="#212121" style="fill: var(--color1, #212121)" d="M14.361 10.312l-3.94-3.969 0.437-2.154c0.105 0.042 0.226 0.067 0.354 0.068h0.003c0.004 0 0.008 0 0.012 0 0.556 0 1.008-0.451 1.008-1.008s-0.451-1.008-1.008-1.008c-0.556 0-1.008 0.451-1.008 1.008 0 0.121 0.021 0.237 0.060 0.345l-0.002-0.007-2.315 0.283-3.776-3.795c-0.045-0.046-0.107-0.074-0.176-0.075h-0c-0.065 0-0.128 0.026-0.174 0.073l-0.705 0.702c-0.045 0.045-0.073 0.107-0.073 0.176s0.028 0.131 0.073 0.176v0l0.38 0.385c-0.533 0.962-0.847 2.11-0.847 3.332 0 1.916 0.773 3.651 2.023 4.912l-0-0c0.020 0.019 0.043 0.034 0.068 0.045-0.015 0.076-0.024 0.165-0.024 0.255v2.888h-2.987c-0.687 0.001-1.244 0.557-1.245 1.244v0.498c0 0.138 0.112 0.249 0.249 0.249h11.449c0.137 0 0.249-0.111 0.249-0.249v-0.498c-0.001-0.687-0.557-1.244-1.244-1.244h-2.987v-1.28c0.468 0.098 0.945 0.148 1.423 0.149 1.204-0.001 2.336-0.309 3.321-0.85l-0.036 0.018 0.382 0.384c0.046 0.047 0.109 0.074 0.176 0.075 0.065-0 0.128-0.026 0.174-0.073l0.706-0.702c0.045-0.045 0.073-0.107 0.073-0.176s-0.028-0.131-0.073-0.176v0zM10.864 2.909c0.090-0.090 0.214-0.145 0.351-0.145 0.275 0 0.498 0.223 0.498 0.498s-0.223 0.498-0.498 0.498c-0 0-0 0-0 0h-0.002c-0.274-0.002-0.495-0.224-0.495-0.498 0-0.138 0.056-0.263 0.147-0.353l0-0h-0.001zM10.278 4.544l-0.279 1.375-0.548-0.552 0.828-0.823zM9.995 4.123l-0.896 0.891-0.693-0.697 1.589-0.194zM11.202 13.44c0.412 0 0.747 0.334 0.747 0.747v0 0.249h-10.951v-0.249c0-0.412 0.334-0.747 0.747-0.747v0h9.458zM7.718 12.444v0.498h-2.489v-0.498h2.489zM5.229 11.947v-1.892c0-0.604 0.558-1.095 1.244-1.095s1.245 0.491 1.245 1.095v1.892h-2.489zM8.215 11.155v-1.1c0-0.878-0.781-1.593-1.742-1.593-0.008-0-0.018-0-0.027-0-0.631 0-1.185 0.33-1.5 0.826l-0.004 0.007c-1.101-1.158-1.779-2.728-1.779-4.457 0-1.080 0.264-2.098 0.732-2.993l-0.017 0.036 8.681 8.731c-0.851 0.442-1.857 0.701-2.924 0.701-0.503 0-0.993-0.058-1.463-0.167l0.043 0.008zM13.484 10.836l-9.827-9.884 0.352-0.351 3.703 3.724c0.002 0 0.003 0.003 0.004 0.004l6.12 6.156-0.353 0.351z"></path>
<path fill="#2196f3" style="fill: var(--color2, #2196f3)" d="M6.475 9.458h-0.002c-0 0-0.001 0-0.001 0-0.412 0-0.747 0.334-0.747 0.747s0.334 0.746 0.745 0.747h0.002c0 0 0.001 0 0.001 0 0.412 0 0.747-0.334 0.747-0.747s-0.334-0.746-0.746-0.747h-0zM6.649 10.381c-0.045 0.045-0.107 0.073-0.176 0.073-0.138 0-0.249-0.111-0.249-0.249s0.111-0.249 0.248-0.249h0c0.137 0.001 0.248 0.112 0.248 0.249 0 0.069-0.028 0.131-0.073 0.176v0h0.002z"></path>
</symbol>
<symbol id="icon-astronaut" viewBox="0 0 64 32">
<path fill="#2196f3" style="fill: var(--color2, #2196f3)" d="M14.921 2.111c-0.030-0.089-0.106-0.155-0.199-0.169l-0.001-0-0.892-0.13-0.399-0.808c-0.083-0.17-0.363-0.17-0.446 0l-0.399 0.808-0.892 0.13c-0.121 0.018-0.213 0.121-0.213 0.246 0 0.070 0.029 0.133 0.075 0.178l0.646 0.629-0.152 0.888c-0.016 0.093 0.022 0.188 0.099 0.244 0.077 0.056 0.179 0.063 0.262 0.019l0.797-0.419 0.797 0.419c0.034 0.018 0.073 0.028 0.116 0.028 0.138 0 0.249-0.112 0.249-0.249 0-0.015-0.001-0.029-0.004-0.043l0 0.002-0.152-0.888 0.645-0.629c0.046-0.045 0.075-0.109 0.075-0.178 0-0.027-0.004-0.054-0.013-0.079l0.001 0.002zM13.772 2.731c-0.059 0.057-0.085 0.14-0.071 0.22l0.089 0.52-0.467-0.245c-0.034-0.018-0.074-0.029-0.116-0.029s-0.082 0.011-0.117 0.029l0.001-0.001-0.467 0.245 0.089-0.52c0.002-0.013 0.004-0.027 0.004-0.042 0-0.070-0.029-0.133-0.075-0.178l-0-0-0.378-0.368 0.522-0.076c0.081-0.012 0.151-0.063 0.188-0.136l0.233-0.473 0.233 0.473c0.036 0.074 0.106 0.125 0.188 0.136l0.522 0.076-0.378 0.368zM12.196 9.577h-0.498v0.498h0.498v-0.498zM12.196 10.573h-0.498v0.498h0.498v-0.498zM12.693 10.075h-0.498v0.498h0.498v-0.498zM11.698 10.075h-0.498v0.498h0.498v-0.498zM10.453 12.315h-0.498v0.498h0.498v-0.498zM10.453 13.31h-0.498v0.498h0.498v-0.498zM10.951 12.813h-0.498v0.498h0.498v-0.498zM9.956 12.813h-0.498v0.498h0.498v-0.498zM7.467 11.319h-0.498v0.498h0.498v-0.498zM7.467 12.315h-0.498v0.498h0.498v-0.498zM7.964 11.817h-0.498v0.498h0.498v-0.498zM6.969 11.817h-0.498v0.498h0.498v-0.498zM2.738 2.857h-0.498v0.498h0.498v-0.498zM2.738 3.853h-0.498v0.498h0.498v-0.498zM3.235 3.355h-0.498v0.498h0.498v-0.498zM2.24 3.355h-0.498v0.498h0.498v-0.498z"></path>
<path fill="#212121" style="fill: var(--color1, #212121)" d="M11.533 6.608c-0.131-0.176-0.326-0.297-0.55-0.328l-0.004-0c-0.036-0.005-0.077-0.008-0.118-0.008-0.192 0-0.368 0.065-0.508 0.174l0.002-0.001-0.585 0.448-0.886 0.661-0.634-0.253c1.13-0.507 1.92-1.637 1.92-2.949 0-1.784-1.457-3.236-3.248-3.236s-3.249 1.452-3.249 3.236c0 0.647 0.193 1.248 0.523 1.754l-1.292-0.011c-0.004 0-0.007 0.002-0.011 0.002-0.026 0.001-0.051 0.007-0.074 0.015l0.002-0.001c-0.006 0.002-0.012 0.003-0.018 0.006-0.003 0.001-0.006 0.002-0.009 0.003l-1.509 0.745c-0 0-0.001 0-0.001 0l-0.883 0.425c-0.011 0.005-0.021 0.011-0.030 0.017l0.001-0c-0.225 0.151-0.371 0.404-0.371 0.692 0 0.139 0.034 0.269 0.094 0.384l-0.002-0.005c0.102 0.198 0.276 0.346 0.487 0.413l0.006 0.002c0.075 0.025 0.161 0.039 0.251 0.039 0.144 0 0.279-0.037 0.397-0.101l-0.004 0.002 0.648-0.344 1.056-0.546 0.633-0.004-2.54 2.527c0 0-0 0-0.001 0.001l-0.625 0.622c-0.141 0.14-0.229 0.333-0.229 0.548 0 0.001 0 0.002 0 0.002v-0c0.001 0.429 0.349 0.777 0.778 0.777 0 0 0.001 0 0.001 0h-0c0.2 0 0.399-0.076 0.551-0.227l0.613-0.611 0.812-0.607 0.42 0.419-1.447 1.441c-0.141 0.14-0.229 0.333-0.229 0.548 0 0.001 0 0.001 0 0.002v-0c0 0.208 0.081 0.403 0.229 0.55 0.141 0.14 0.335 0.226 0.549 0.226 0.001 0 0.001 0 0.002 0h-0c0.199 0 0.399-0.076 0.551-0.226l2.095-2.087c0.003-0.003 0.007-0.004 0.010-0.007l2.411-2.64 1.62 0.23c0.012 0.002 0.023 0.003 0.035 0.003 0.030 0 0.059-0.007 0.087-0.018 0.008-0.003 0.015-0.007 0.023-0.011 0.009-0.004 0.018-0.007 0.027-0.013l1.5-0.995c0.006-0.004 0.009-0.010 0.014-0.014s0.013-0.007 0.019-0.012l0.593-0.556c0.162-0.152 0.263-0.367 0.263-0.607 0-0.187-0.062-0.359-0.166-0.498l0.002 0.002zM0.994 8.293c-0.046 0.025-0.1 0.040-0.158 0.040-0.036 0-0.072-0.006-0.104-0.017l0.002 0.001c-0.137-0.043-0.235-0.17-0.235-0.319 0-0.11 0.053-0.207 0.135-0.268l0.001-0.001 0.613-0.295 0.148 0.431 0.062 0.181-0.463 0.246zM2.626 7.44l-0.723 0.373-0.119-0.348-0.086-0.25 0.946-0.467-0.019 0.692zM9.673 4.35c0 0.429-0.102 0.833-0.279 1.194l-1.951-0.886c-0.020-0.268-0.16-0.5-0.365-0.646l-0.003-0.002 0.683-2.268c1.109 0.353 1.915 1.388 1.915 2.608zM4.171 4.35c0-1.51 1.234-2.738 2.751-2.738 0.118 0 0.233 0.010 0.348 0.025l-0.668 2.218c-0.009 0-0.017-0.003-0.027-0.003-0 0-0 0-0 0-0.482 0-0.872 0.39-0.873 0.871v0c0.001 0.481 0.392 0.871 0.874 0.871 0 0 0 0 0 0v0c0.324 0 0.604-0.179 0.755-0.441l1.803 0.819c-0.502 0.675-1.304 1.115-2.211 1.115-1.517 0-2.751-1.228-2.751-2.738zM6.951 4.724c0 0.206-0.169 0.373-0.376 0.373-0 0-0 0-0.001 0-0.207 0-0.374-0.167-0.375-0.373v-0c0-0.206 0.169-0.373 0.376-0.373s0.376 0.167 0.376 0.373zM1.15 11.735c-0.051 0.051-0.122 0.082-0.2 0.082s-0.148-0.031-0.199-0.082l0 0c-0.051-0.050-0.082-0.12-0.082-0.197s0.031-0.147 0.082-0.197l0-0 0.449-0.447 0.398 0.396-0.447 0.445zM2.65 13.477c-0.051 0.051-0.122 0.082-0.2 0.082s-0.148-0.031-0.199-0.082l0 0c-0.051-0.050-0.082-0.12-0.082-0.197s0.031-0.147 0.082-0.197l0-0 0.449-0.448 0.397 0.396-0.448 0.446zM4.275 11.858l-0.001 0.001-0.823 0.821-0.398-0.396 0.824-0.82c0.019-0.019 0.030-0.041 0.042-0.063 0.003-0.006 0.009-0.012 0.012-0.019 0.008-0.019 0.009-0.040 0.012-0.060 0.002-0.012 0.006-0.022 0.006-0.034 0-0.016-0.006-0.033-0.009-0.049-0.003-0.015-0.003-0.030-0.009-0.045-0.011-0.025-0.026-0.046-0.043-0.064l0 0c-0.005-0.006-0.006-0.012-0.012-0.018h-0s0-0.001-0-0.001l-0.75-0.747c-0.008-0.008-0.018-0.011-0.027-0.018-0.012-0.010-0.025-0.019-0.039-0.026l-0.001-0.001c-0.012-0.006-0.027-0.011-0.042-0.015l-0.002-0c-0.014-0.004-0.030-0.008-0.047-0.009l-0.001-0c-0.003-0-0.007-0-0.011-0-0.012 0-0.024 0.001-0.035 0.003l0.001-0c-0.017 0.002-0.032 0.004-0.048 0.010s-0.030 0.013-0.044 0.021c-0.009 0.005-0.020 0.007-0.028 0.013l-0.828 0.618-0.42-0.419 1.12-1.114 2.035 2.002-0.433 0.429zM7.457 8.584c-0.007-0.001-0.014 0.002-0.021 0.001-0.004-0-0.008-0-0.012-0-0.015 0-0.029 0.001-0.043 0.004l0.001-0c-0.032 0.005-0.061 0.016-0.087 0.033l0.001-0.001c-0.014 0.009-0.026 0.017-0.039 0.029-0.006 0.005-0.013 0.008-0.019 0.014l-2.192 2.401-2.020-1.986 1.322-1.315c0.045-0.045 0.073-0.107 0.073-0.176 0-0.138-0.112-0.249-0.249-0.249-0 0-0 0-0.001 0h0l-1.036 0.006 0.013-0.75 1.449 0.012c0.59 0.605 1.413 0.98 2.323 0.98 0 0 0.001 0 0.002 0h-0c0.204 0 0.403-0.021 0.597-0.057 0.019 0.015 0.037 0.030 0.060 0.039l1.125 0.448 0.071 0.354 0.083 0.413-1.401-0.199zM9.343 8.667l-0.146-0.727 0.675-0.504 0.442 0.586-0.971 0.645zM11.094 7.346l-0.391 0.366-0.435-0.577 0.388-0.297c0.073-0.056 0.164-0.079 0.253-0.067 0.090 0.013 0.17 0.060 0.224 0.133 0.041 0.055 0.066 0.124 0.066 0.199 0 0.096-0.041 0.182-0.105 0.243l-0 0z"></path>
<path fill="#212121" style="fill: var(--color1, #212121)" d="M6.348 8.654l-1-0.996c-0.045-0.045-0.107-0.073-0.176-0.073s-0.131 0.028-0.176 0.073l-1 0.996c-0.045 0.045-0.073 0.108-0.073 0.176s0.028 0.131 0.073 0.176v0l1 0.996c0.045 0.045 0.107 0.073 0.176 0.073s0.131-0.028 0.176-0.073v0l1-0.996c0.045-0.045 0.073-0.107 0.073-0.176s-0.028-0.131-0.073-0.176v0zM5.172 9.475l-0.647-0.644 0.647-0.644 0.647 0.644-0.647 0.644zM8.010 2.366l-0.12 0.483c0.033 0.008 0.811 0.211 0.811 1.003h0.498c0-0.941-0.777-1.384-1.188-1.486zM9.198 4.35h-0.498v0.498h0.498v-0.498z"></path>
</symbol>
<symbol id="icon-clock" viewBox="0 0 64 32">
<path fill="#212121" style="fill: var(--color1, #212121)" d="M14.605 7.14c-0.001-3.944-3.199-7.141-7.144-7.14s-7.141 3.199-7.14 7.144c0.001 3.168 2.064 5.853 4.919 6.788l0.051 0.014c0.028 0.009 0.058 0.013 0.087 0.013 0.056 0 0.111-0.015 0.16-0.044 0.063-0.037 0.11-0.097 0.132-0.166l1.804-5.717c0.492-0.002 0.89-0.401 0.89-0.893 0-0.493-0.4-0.893-0.893-0.893-0.141 0-0.275 0.033-0.394 0.091l0.005-0.002-2.383-2.383c-0.053-0.052-0.126-0.083-0.207-0.083-0.164 0-0.298 0.133-0.298 0.298 0 0.080 0.032 0.153 0.083 0.207l-0-0 2.381 2.384c-0.056 0.112-0.089 0.245-0.089 0.385 0 0.281 0.132 0.531 0.338 0.691l0.002 0.001-1.718 5.447c-3.396-1.251-5.135-5.019-3.884-8.415s5.018-5.135 8.415-3.884c3.396 1.251 5.135 5.018 3.884 8.415-0.628 1.671-1.868 2.99-3.441 3.704l-0.041 0.017-0.186-0.875c-0.029-0.136-0.148-0.236-0.291-0.236-0.076 0-0.146 0.029-0.199 0.076l0-0-1.79 1.599c-0.061 0.055-0.1 0.134-0.1 0.222 0 0.132 0.086 0.244 0.206 0.283l0.002 0.001 2.286 0.73c0.027 0.009 0.059 0.014 0.091 0.014 0.164 0 0.297-0.133 0.297-0.297 0-0.022-0.002-0.044-0.007-0.064l0 0.002-0.182-0.858c2.58-1.108 4.353-3.627 4.353-6.56 0-0.005 0-0.011-0-0.016v0.001zM7.463 6.843c0.164 0 0.298 0.133 0.298 0.298s-0.133 0.298-0.298 0.298v0c-0.164 0-0.298-0.133-0.298-0.298s0.133-0.298 0.298-0.298v0zM8.443 13.78l1.019-0.909 0.281 1.325-1.301-0.416z"></path>
<path fill="#2196f3" style="fill: var(--color2, #2196f3)" d="M7.165 1.486v0.595c0 0.164 0.133 0.298 0.298 0.298s0.298-0.133 0.298-0.298v0-0.595c0-0.164-0.133-0.298-0.298-0.298s-0.298 0.133-0.298 0.298v0zM1.809 6.843c-0.164 0-0.298 0.133-0.298 0.298s0.133 0.298 0.298 0.298h0.595c0.164 0 0.298-0.133 0.298-0.298s-0.133-0.298-0.298-0.298h-0.595zM13.117 7.438c0.164 0 0.298-0.133 0.298-0.298s-0.133-0.298-0.298-0.298h-0.595c-0.164 0-0.298 0.133-0.298 0.298s0.133 0.298 0.298 0.298h0.595z"></path>
</symbol>
<symbol id="icon-Company1" viewBox="0 0 64 32">
<path fill="#afb1b8" style="fill: var(--color3, #afb1b8)" d="M1.28 0l1.495 1.415-2.775-0.002v6.867h7.253v-2.626l1.493 1.414v-7.069h-7.467zM7.188 5.489l-4.239-4.013h4.239v4.013zM5.872 7.276h-4.724v-4.618h0.334v4.305h4.39v0.313zM2.263 9.195l-0.175 0.359-0.175-0.359h-0.146l0.255 0.479v0.279h0.132v-0.279l0.254-0.479h-0.146zM2.483 9.953l0.061-0.177h0.294l0.062 0.177h0.138l-0.287-0.758h-0.118l-0.286 0.758h0.137zM2.691 9.356l0.11 0.314h-0.22l0.11-0.315zM3.386 9.652c-0.018 0.027-0.029 0.060-0.029 0.095 0 0 0 0.001 0 0.001v-0c0 0.064 0.022 0.116 0.067 0.156s0.105 0.060 0.18 0.060c0.075 0 0.14-0.020 0.194-0.061l0.043 0.051h0.147l-0.111-0.132c0.044-0.060 0.066-0.136 0.066-0.23h-0.11c0 0.051-0.011 0.098-0.032 0.139l-0.147-0.173 0.052-0.038c0.031-0.021 0.058-0.048 0.078-0.078l0.001-0.001c0.015-0.025 0.024-0.054 0.024-0.086 0-0 0-0.001 0-0.001v0c0-0.001 0-0.002 0-0.003 0-0.047-0.021-0.089-0.053-0.117l-0-0c-0.034-0.031-0.079-0.049-0.128-0.049-0.003 0-0.005 0-0.008 0h0c-0.061 0-0.11 0.018-0.146 0.052s-0.054 0.081-0.054 0.141c0 0.024 0.006 0.049 0.017 0.076s0.033 0.058 0.062 0.095c-0.056 0.040-0.094 0.075-0.113 0.105zM3.728 9.82c-0.032 0.026-0.074 0.042-0.12 0.043h-0c-0.002 0-0.004 0-0.006 0-0.033 0-0.062-0.013-0.085-0.033l0 0c-0.021-0.021-0.034-0.049-0.034-0.081 0-0.002 0-0.003 0-0.004v0c0-0.041 0.021-0.077 0.063-0.108l0.016-0.012 0.166 0.195zM3.592 9.484c-0.036-0.044-0.054-0.081-0.054-0.11 0-0.025 0.007-0.046 0.022-0.063 0.014-0.015 0.034-0.025 0.056-0.025 0.001 0 0.002 0 0.003 0h-0c0.001-0 0.002-0 0.003-0 0.021 0 0.040 0.008 0.054 0.021l-0-0c0.015 0.014 0.022 0.031 0.022 0.051 0 0.001 0 0.002 0 0.003 0 0.028-0.012 0.053-0.032 0.071l-0 0-0.016 0.013-0.058 0.040zM4.826 9.896c0.052-0.045 0.082-0.109 0.090-0.189h-0.131c-0.007 0.054-0.023 0.093-0.050 0.116s-0.065 0.035-0.117 0.035c-0.057 0-0.1-0.022-0.129-0.065s-0.044-0.106-0.044-0.188v-0.067c0.001-0.081 0.016-0.142 0.047-0.184s0.075-0.063 0.132-0.063c0.049 0 0.087 0.012 0.112 0.036s0.042 0.063 0.048 0.118h0.131c-0.009-0.083-0.038-0.147-0.089-0.193s-0.118-0.068-0.202-0.068c-0.062 0-0.117 0.015-0.164 0.044-0.048 0.030-0.085 0.073-0.108 0.124l-0.001 0.002c-0.024 0.053-0.038 0.115-0.038 0.18 0 0.003 0 0.006 0 0.009v-0 0.071c0.001 0.070 0.014 0.131 0.039 0.184s0.061 0.093 0.106 0.122c0.046 0.029 0.1 0.043 0.16 0.043 0.086 0 0.156-0.022 0.208-0.068zM5.601 9.789c0.026-0.056 0.039-0.122 0.039-0.196v-0.042c0-0.002 0-0.005 0-0.008 0-0.068-0.015-0.132-0.041-0.19l0.001 0.003c-0.024-0.054-0.062-0.097-0.11-0.127l-0.001-0.001c-0.048-0.030-0.102-0.045-0.164-0.045s-0.116 0.015-0.164 0.045c-0.048 0.030-0.084 0.073-0.111 0.13-0.025 0.055-0.039 0.119-0.039 0.186 0 0.003 0 0.007 0 0.010v-0.001 0.043c0 0.073 0.013 0.137 0.039 0.192s0.064 0.099 0.112 0.129c0.048 0.030 0.103 0.045 0.164 0.045s0.117-0.015 0.165-0.045c0.048-0.030 0.085-0.073 0.11-0.129zM5.46 9.361c0.032 0.045 0.048 0.109 0.048 0.194v0.039c0 0.085-0.016 0.15-0.047 0.195s-0.076 0.067-0.134 0.067c-0.002 0-0.004 0-0.005 0-0.054 0-0.101-0.027-0.129-0.068l-0-0.001c-0.032-0.045-0.048-0.11-0.048-0.193v-0.044c0.001-0.082 0.017-0.145 0.049-0.189 0.029-0.041 0.075-0.067 0.128-0.067 0.002 0 0.004 0 0.006 0h-0c0.058 0 0.103 0.022 0.135 0.067z"></path>
</symbol>
<symbol id="icon-Company2" viewBox="0 0 64 32">
<path fill="#afb1b8" style="fill: var(--color3, #afb1b8)" d="M10.691 1.266h-0.029c-0.045-0.003-0.090-0.004-0.134-0.005h-0.097c-0.085 0-0.171 0.002-0.257 0.006-0.003-0-0.006-0-0.010-0s-0.007 0-0.010 0l0-0c-0.824 0.048-1.588 0.254-2.28 0.588l0.036-0.016-0.092 0.044v4.724l0.216-0.073c0.189-0.065 0.391-0.124 0.6-0.178 0.516-0.138 1.11-0.221 1.722-0.229l0.005-0v0.621c-0.077 0-0.152 0.003-0.227 0.006h-0.018c-0.485 0.027-0.939 0.1-1.377 0.215l0.048-0.011c-0.601 0.153-1.128 0.364-1.618 0.635l0.035-0.018v-6.058c0.478-0.284 1.031-0.516 1.617-0.666l0.044-0.010c0.469-0.126 1.008-0.2 1.564-0.202h0.092c0.109 0.003 0.215 0.008 0.315 0.015 0.263 0.019 0.524 0.060 0.78 0.124v0.611c-0.218-0.053-0.476-0.094-0.74-0.113l-0.016-0.001-0.016-0.001c-0.053-0.004-0.105-0.009-0.154-0.009zM11.766 1.89c0.135 0.010 0.276 0.015 0.418 0.015 0.586-0.002 1.152-0.079 1.692-0.222l-0.047 0.010c0.601-0.153 1.127-0.365 1.617-0.635l-0.035 0.018v5.95c-0.478 0.284-1.031 0.516-1.617 0.666l-0.044 0.010c-0.469 0.126-1.008 0.199-1.564 0.201h-0.001c-0.011 0-0.025 0-0.038 0-0.408 0-0.804-0.051-1.182-0.147l0.033 0.007v-5.989c0.092 0.021 0.186 0.041 0.282 0.057 0.158 0.027 0.324 0.046 0.486 0.058zM14.794 1.937l-0.216 0.073c-0.198 0.067-0.399 0.127-0.6 0.18-0.538 0.144-1.155 0.228-1.792 0.23h-0.001c-0.141 0-0.27-0.004-0.396-0.012l-0.172-0.011v4.859l0.148 0.013c0.137 0.012 0.278 0.018 0.421 0.018 0.503-0.002 0.989-0.069 1.452-0.192l-0.040 0.009c0.423-0.108 0.791-0.243 1.139-0.412l-0.035 0.015 0.092-0.044v-4.725z"></path>
<path fill="#afb1b8" style="fill: var(--color3, #afb1b8)" d="M7.624 9.645c-0.058-0.060-0.139-0.097-0.229-0.097-0.004 0-0.008 0-0.012 0l0.001-0c-0.001-0-0.003-0-0.005-0-0.048 0-0.094 0.010-0.136 0.027l0.002-0.001c-0.082 0.033-0.146 0.097-0.177 0.178l-0.001 0.002c-0.017 0.043-0.025 0.088-0.025 0.134v0.809c-0.002 0.057 0.009 0.114 0.032 0.166 0.019 0.042 0.047 0.079 0.081 0.109 0.032 0.027 0.070 0.047 0.111 0.058 0.039 0.011 0.080 0.017 0.121 0.017 0.045 0 0.090-0.009 0.131-0.028 0.121-0.054 0.205-0.174 0.205-0.313v-0.090h-0.212v0.072c0 0.001 0 0.003 0 0.005 0 0.024-0.005 0.047-0.013 0.068l0-0.001c-0.007 0.018-0.018 0.033-0.031 0.046l-0 0c-0.024 0.019-0.055 0.030-0.088 0.031h-0c-0.004 0-0.008 0.001-0.012 0.001-0.036 0-0.067-0.017-0.087-0.044l-0-0c-0.018-0.029-0.028-0.063-0.028-0.1 0-0.003 0-0.006 0-0.008v0-0.755c-0.001-0.042 0.008-0.083 0.026-0.121 0.020-0.030 0.053-0.050 0.091-0.050 0.004 0 0.009 0 0.013 0.001l-0.001-0c0.001-0 0.003-0 0.004-0 0.037 0 0.070 0.018 0.090 0.045l0 0c0.022 0.029 0.035 0.065 0.035 0.104 0 0.002-0 0.003-0 0.005v-0 0.070h0.21v-0.083c0-0.001 0-0.002 0-0.004 0-0.050-0.009-0.097-0.027-0.141l0.001 0.003c-0.017-0.044-0.041-0.082-0.071-0.114l0 0zM8.881 9.636c-0.065-0.055-0.149-0.088-0.241-0.089h-0c-0.043 0-0.086 0.008-0.126 0.023-0.087 0.031-0.156 0.096-0.193 0.177l-0.001 0.002c-0.021 0.049-0.032 0.103-0.031 0.157v0.776c-0.002 0.055 0.009 0.109 0.031 0.159 0.019 0.042 0.047 0.079 0.082 0.109 0.032 0.030 0.070 0.053 0.112 0.068s0.083 0.023 0.126 0.023c0.092-0 0.177-0.035 0.241-0.091l-0 0c0.034-0.030 0.061-0.067 0.080-0.109 0.022-0.050 0.032-0.104 0.031-0.159v-0.776c0-0.002 0-0.004 0-0.007 0-0.054-0.011-0.106-0.032-0.152l0.001 0.002c-0.020-0.044-0.047-0.082-0.080-0.113l-0-0zM8.782 10.682c0 0.004 0.001 0.008 0.001 0.012 0 0.039-0.016 0.075-0.043 0.1l-0 0c-0.027 0.023-0.062 0.036-0.1 0.036s-0.073-0.014-0.1-0.036l0 0c-0.026-0.025-0.043-0.061-0.043-0.1 0-0.004 0-0.009 0.001-0.013l-0 0.001v-0.776c-0-0.004-0.001-0.008-0.001-0.012 0-0.039 0.016-0.075 0.043-0.1l0-0c0.027-0.023 0.062-0.036 0.1-0.036s0.073 0.014 0.1 0.037l-0-0c0.026 0.025 0.043 0.061 0.043 0.1 0 0.004-0 0.008-0.001 0.013l0-0.001v0.777zM10.532 11.029v-1.47h-0.203l-0.267 0.778h-0.004l-0.269-0.778h-0.201v1.469h0.21v-0.894h0.004l0.205 0.632h0.105l0.207-0.632h0.004v0.894h0.21zM11.724 9.663c-0.032-0.036-0.073-0.064-0.119-0.080-0.043-0.015-0.093-0.023-0.144-0.023-0.003 0-0.006 0-0.008 0h-0.311v1.47h0.21v-0.574h0.108c0.066 0.003 0.13-0.011 0.189-0.040 0.048-0.027 0.087-0.065 0.114-0.111l0.001-0.001c0.024-0.039 0.041-0.083 0.048-0.128s0.011-0.1 0.011-0.154c0-0.005-0-0.009-0-0.014v0.001c0.002-0.070-0.005-0.141-0.020-0.21-0.015-0.053-0.042-0.098-0.077-0.135l0 0zM11.616 10.111c-0.001 0.028-0.008 0.054-0.020 0.078l0.001-0.001c-0.012 0.023-0.031 0.040-0.053 0.051l-0.001 0c-0.026 0.012-0.056 0.019-0.088 0.019-0.004 0-0.008-0-0.011-0l0.001 0h-0.096v-0.5h0.108c0.003-0 0.007-0 0.010-0 0.031 0 0.060 0.007 0.086 0.019l-0.001-0.001c0.022 0.013 0.039 0.031 0.049 0.053l0 0.001c0.012 0.026 0.018 0.054 0.018 0.082v0.098c0 0.034 0.002 0.070 0 0.101h-0.002zM12.716 9.559h-0.172l-0.324 1.47h0.21l0.061-0.316h0.286l0.061 0.316h0.209l-0.332-1.47zM12.523 10.513l0.103-0.533h0.004l0.102 0.533h-0.209zM14.069 10.445h-0.004l-0.316-0.885h-0.201v1.47h0.209v-0.884h0.004l0.32 0.884h0.197v-1.469h-0.209v0.885zM15.349 9.559l-0.169 0.585h-0.004l-0.169-0.585h-0.221l0.288 0.849v0.621h0.21v-0.621l0.288-0.848h-0.222zM7.040 11.444h0.101v0.283h0.068v-0.283h0.1v-0.058h-0.27v0.058zM7.888 11.386l-0.132 0.341h0.073l0.028-0.078h0.136l0.029 0.078h0.075l-0.136-0.341h-0.073zM7.878 11.592l0.046-0.127 0.046 0.127h-0.093zM8.727 11.601h0.079v0.044c-0.022 0.018-0.050 0.029-0.081 0.029h-0c-0.001 0-0.003 0-0.005 0-0.027 0-0.052-0.013-0.068-0.033l-0-0c-0.016-0.023-0.025-0.051-0.025-0.081 0-0.003 0-0.005 0-0.008l-0 0c0-0.076 0.033-0.114 0.098-0.114 0.002-0 0.005-0 0.007-0 0.034 0 0.062 0.023 0.070 0.054l0 0.001 0.067-0.013c-0.014-0.067-0.063-0.1-0.145-0.1-0.001-0-0.003-0-0.005-0-0.044 0-0.084 0.017-0.115 0.044l0-0c-0.031 0.030-0.050 0.072-0.050 0.118 0 0.004 0 0.009 0.001 0.013l-0-0.001c-0 0.002-0 0.005-0 0.008 0 0.046 0.017 0.088 0.044 0.12l-0-0c0.030 0.031 0.072 0.050 0.119 0.050 0.004 0 0.007-0 0.011-0l-0.001 0c0.002 0 0.004 0 0.006 0 0.054 0 0.103-0.021 0.139-0.055l-0 0v-0.134h-0.148v0.058zM9.584 11.386h-0.069v0.341h0.239v-0.058h-0.17v-0.283zM10.308 11.386h-0.069v0.341h0.069v-0.341zM11.016 11.614l-0.14-0.228h-0.067v0.341h0.064v-0.223l0.137 0.223h0.069v-0.341h-0.063v0.228zM11.656 11.577h0.17v-0.058h-0.17v-0.075h0.183v-0.058h-0.252v0.341h0.259v-0.058h-0.19v-0.092zM13.208 11.521h-0.134v-0.134h-0.068v0.341h0.068v-0.149h0.134v0.149h0.069v-0.341h-0.069v0.135zM13.852 11.577h0.171v-0.058h-0.171v-0.075h0.183v-0.058h-0.252v0.341h0.259v-0.058h-0.19v-0.092zM14.725 11.577c0.060-0.009 0.090-0.041 0.090-0.095 0-0.003 0.001-0.006 0.001-0.010 0-0.027-0.013-0.051-0.034-0.066l-0-0c-0.025-0.013-0.055-0.021-0.087-0.021-0.005 0-0.009 0-0.014 0.001l0.001-0h-0.145v0.341h0.069v-0.143h0.013c0.002-0 0.004-0 0.005-0 0.013 0 0.026 0.003 0.038 0.008l-0.001-0c0.010 0.006 0.018 0.015 0.024 0.025l0.074 0.108h0.082l-0.042-0.067c-0.019-0.033-0.044-0.061-0.075-0.081l-0.001-0.001zM14.656 11.53h-0.051v-0.086h0.054c0.004-0 0.009-0.001 0.014-0.001 0.020 0 0.039 0.003 0.056 0.009l-0.001-0c0.009 0.008 0.015 0.020 0.015 0.033 0 0.015-0.007 0.028-0.018 0.036l-0 0c-0.017 0.005-0.037 0.009-0.057 0.009-0.005 0-0.009-0-0.013-0l0.001 0zM15.383 11.577h0.17v-0.058h-0.17v-0.075h0.183v-0.058h-0.253v0.341h0.259v-0.058h-0.19v-0.092z"></path>
</symbol>
<symbol id="icon-Company3" viewBox="0 0 64 32">
<path fill="#afb1b8" style="fill: var(--color3, #afb1b8)" d="M7.767 10.475c0.003 0 0.007 0.001 0.010 0.002s0.006 0.003 0.008 0.005l-0-0 0.046 0.044c-0.036 0.036-0.081 0.065-0.131 0.084-0.052 0.019-0.111 0.030-0.174 0.030-0.004 0-0.008-0-0.013-0h0.001c-0.060 0.001-0.119-0.009-0.174-0.028-0.051-0.018-0.095-0.046-0.132-0.080l0 0c-0.036-0.034-0.064-0.075-0.084-0.121l-0.001-0.002c-0.019-0.046-0.030-0.098-0.030-0.154 0-0.002 0-0.003 0-0.005v0c-0-0.002-0-0.005-0-0.008 0-0.109 0.047-0.206 0.122-0.274l0-0c0.040-0.035 0.087-0.062 0.14-0.080 0.057-0.019 0.118-0.029 0.18-0.028 0.003-0 0.007-0 0.011-0 0.056 0 0.109 0.009 0.159 0.027l-0.003-0.001c0.046 0.018 0.088 0.042 0.125 0.071l-0.039 0.047c-0.003 0.003-0.006 0.006-0.010 0.008l-0 0c-0.004 0.002-0.009 0.004-0.014 0.004-0.001 0-0.002-0-0.002-0h0c-0.006-0-0.012-0.002-0.017-0.005l0 0-0.021-0.013-0.029-0.016c-0.027-0.013-0.057-0.023-0.090-0.028l-0.002-0c-0.019-0.003-0.042-0.005-0.064-0.005-0.002 0-0.004 0-0.005 0h0c-0.001 0-0.003-0-0.004-0-0.045 0-0.088 0.008-0.127 0.022l0.003-0.001c-0.039 0.014-0.073 0.034-0.102 0.060l0-0c-0.029 0.027-0.051 0.060-0.066 0.095s-0.024 0.077-0.024 0.121c0 0.002 0 0.003 0 0.005v-0c-0 0.002-0 0.003-0 0.005 0 0.044 0.009 0.086 0.024 0.124l-0.001-0.002c0.014 0.035 0.036 0.067 0.065 0.095 0.027 0.026 0.060 0.046 0.097 0.059 0.038 0.014 0.079 0.020 0.12 0.020 0.024 0 0.048-0.001 0.071-0.004 0.059-0.006 0.112-0.030 0.154-0.066l-0 0c0.006-0.005 0.014-0.008 0.022-0.008h0zM9.11 10.252c0 0.001 0 0.003 0 0.005 0 0.055-0.012 0.108-0.032 0.155l0.001-0.002c-0.021 0.048-0.050 0.089-0.087 0.122l-0 0c-0.039 0.034-0.084 0.062-0.135 0.079l-0.003 0.001c-0.053 0.018-0.114 0.028-0.177 0.028s-0.124-0.010-0.181-0.030l0.004 0.001c-0.053-0.019-0.098-0.046-0.137-0.081l0 0c-0.037-0.034-0.067-0.075-0.088-0.121l-0.001-0.002c-0.020-0.046-0.031-0.101-0.031-0.157s0.012-0.111 0.032-0.16l-0.001 0.003c0.020-0.046 0.050-0.088 0.089-0.124 0.039-0.034 0.085-0.060 0.137-0.077 0.053-0.018 0.114-0.029 0.177-0.029s0.124 0.011 0.181 0.030l-0.004-0.001c0.052 0.018 0.098 0.045 0.137 0.080s0.068 0.077 0.088 0.122c0.022 0.051 0.032 0.104 0.031 0.158zM8.988 10.252c0-0.002 0-0.004 0-0.007 0-0.043-0.008-0.084-0.023-0.122l0.001 0.002c-0.028-0.073-0.086-0.129-0.159-0.153l-0.002-0.001c-0.038-0.013-0.083-0.021-0.129-0.021s-0.090 0.008-0.131 0.022l0.003-0.001c-0.038 0.014-0.071 0.034-0.098 0.060l0-0c-0.027 0.026-0.049 0.057-0.062 0.093l-0.001 0.002c-0.014 0.038-0.022 0.081-0.022 0.126s0.008 0.089 0.023 0.129l-0.001-0.003c0.028 0.073 0.087 0.129 0.159 0.153l0.002 0.001c0.083 0.027 0.174 0.027 0.257 0 0.037-0.013 0.071-0.033 0.098-0.059 0.028-0.028 0.049-0.060 0.062-0.095 0.016-0.041 0.023-0.083 0.022-0.126zM10.027 10.384l0.012 0.028c0.004-0.010 0.009-0.019 0.013-0.028 0.005-0.011 0.010-0.020 0.016-0.029l-0.001 0.001 0.297-0.47c0.006-0.008 0.011-0.013 0.017-0.015s0.013-0.003 0.020-0.003c0.001 0 0.003 0 0.004 0h0.088v0.764h-0.104v-0.585c-0-0.004-0-0.009-0-0.013s0-0.009 0-0.014l-0 0.001-0.299 0.476c-0.004 0.007-0.010 0.013-0.017 0.017l-0 0c-0.007 0.004-0.016 0.006-0.025 0.006-0 0-0 0-0.001 0h-0.017c-0 0-0 0-0.001 0-0.009 0-0.018-0.002-0.025-0.007l0 0c-0.007-0.004-0.013-0.010-0.017-0.017l-0-0-0.308-0.479v0.613h-0.1v-0.762h0.088c0.001-0 0.003-0 0.004-0 0.007 0 0.014 0.001 0.021 0.003l-0.001-0c0.007 0.003 0.013 0.008 0.016 0.015l0.304 0.47c0.005 0.008 0.011 0.017 0.015 0.026l0 0.001zM11.145 10.346v0.286h-0.116v-0.762h0.259c0.049-0.001 0.098 0.005 0.145 0.017 0.038 0.009 0.073 0.026 0.102 0.048 0.025 0.020 0.045 0.045 0.058 0.073l0.001 0.001c0.014 0.031 0.020 0.064 0.020 0.098 0 0.001 0 0.003 0 0.005 0 0.069-0.033 0.13-0.084 0.169l-0.001 0c-0.030 0.023-0.065 0.040-0.103 0.050-0.039 0.011-0.084 0.018-0.131 0.018-0.003 0-0.006-0-0.010-0l-0.14-0.002zM11.145 10.264h0.141c0.030 0 0.061-0.004 0.090-0.012 0.025-0.007 0.047-0.019 0.066-0.033l-0 0c0.033-0.027 0.053-0.068 0.053-0.113 0-0.001 0-0.001 0-0.002v0c0-0.002 0-0.005 0-0.008 0-0.020-0.004-0.038-0.012-0.055l0 0.001c-0.010-0.021-0.023-0.038-0.040-0.052l-0-0c-0.039-0.026-0.087-0.042-0.138-0.042-0.006 0-0.013 0-0.019 0.001l0.001-0h-0.141v0.314zM12.709 10.633h-0.092c-0.001 0-0.001 0-0.002 0-0.009 0-0.017-0.003-0.024-0.007l0 0c-0.007-0.005-0.012-0.011-0.015-0.017l-0-0-0.079-0.184h-0.397l-0.082 0.184c-0.007 0.015-0.022 0.025-0.039 0.025-0 0-0.001 0-0.001-0h-0.092l0.349-0.764h0.121l0.354 0.764zM12.133 10.349h0.328l-0.138-0.311c-0.011-0.023-0.019-0.047-0.026-0.072l-0.013 0.040c-0.004 0.012-0.009 0.023-0.013 0.032l-0.137 0.31zM13.212 9.873c0.007 0.003 0.013 0.008 0.017 0.013l0.509 0.576v-0.593h0.104v0.764h-0.058c-0 0-0.001 0-0.001 0-0.008 0-0.016-0.002-0.023-0.005l0 0c-0.007-0.004-0.014-0.008-0.019-0.014l-0-0-0.508-0.575c0 0.004 0 0.008 0 0.013s-0 0.009-0 0.014l0-0.001v0.567h-0.104v-0.764h0.062c0.007 0 0.014 0.001 0.021 0.004zM14.699 10.329v0.303h-0.116v-0.303l-0.322-0.46h0.104c0.001-0 0.002-0 0.003-0 0.008 0 0.016 0.002 0.023 0.007l-0-0c0.006 0.005 0.012 0.011 0.016 0.017l0.201 0.297c0.008 0.013 0.015 0.024 0.021 0.035s0.011 0.022 0.015 0.032l0.015-0.033c0.006-0.012 0.012-0.023 0.020-0.035l0.198-0.299c0.004-0.006 0.009-0.011 0.015-0.016l0-0c0.006-0.005 0.014-0.008 0.023-0.008 0.001 0 0.002 0 0.002 0h0.105l-0.322 0.462zM9.969 8.588c0.051 0.006 0.102 0.010 0.154 0.014 0.785-0.305 1.449-0.804 1.909-1.435s0.696-1.366 0.678-2.113l-0.865-0.751c0.176 0.795 0.093 1.617-0.238 2.374s-0.898 1.419-1.638 1.911z"></path>
<path fill="#afb1b8" style="fill: var(--color3, #afb1b8)" d="M9.661 8.553l0.023 0.004c0.79-0.491 1.392-1.177 1.729-1.969s0.393-1.653 0.16-2.473l-1.232-1.070c0.498 0.88 0.699 1.865 0.578 2.839s-0.557 1.9-1.259 2.668zM13.838 5.936c-0.209 0.821-0.718 1.561-1.449 2.111-0.2 0.152-0.425 0.295-0.663 0.417l-0.026 0.012c0.596-0.152 1.144-0.421 1.601-0.786s0.812-0.817 1.037-1.32l-0.5-0.434z"></path>
<path fill="#afb1b8" style="fill: var(--color3, #afb1b8)" d="M13.642 5.815l-0.711-0.618c-0.014 0.705-0.244 1.393-0.668 1.994s-1.025 1.093-1.741 1.424h0.003c0.16 0 0.319-0.009 0.477-0.025 0.669-0.237 1.261-0.615 1.721-1.099s0.776-1.060 0.918-1.676zM9.763 2.594l-0.849-0.738c-0.759 0.255-1.411 0.703-1.872 1.285s-0.709 1.272-0.711 1.978c0.003 0.781 0.305 1.539 0.86 2.153s1.328 1.051 2.2 1.24c0.778-0.824 1.234-1.842 1.301-2.906s-0.259-2.119-0.929-3.012zM15.603 5.702c-0.003-0.926-0.428-1.814-1.182-2.469s-1.776-1.024-2.842-1.027c-0.003 0-0.006 0-0.008 0-0.512 0-1.005 0.085-1.464 0.242l0.032-0.009 5.196 4.515c0.169-0.368 0.268-0.798 0.269-1.251v-0z"></path>
</symbol>
<symbol id="icon-Company4" viewBox="0 0 64 32">
<path fill="#2196f3" style="fill: var(--color2, #2196f3)" d="M5.151 4.502h-0.001c-0.512 0-0.926 0.368-0.926 0.823v0.001c0 0.455 0.415 0.823 0.926 0.823h0.001c0.512 0 0.926-0.369 0.926-0.823v-0c0-0.455-0.415-0.823-0.926-0.823zM11.988 4.239c-0.002-0.631-0.284-1.237-0.787-1.683s-1.183-0.698-1.894-0.7c-0.711 0.001-1.392 0.253-1.895 0.699s-0.785 1.052-0.787 1.684v3.482s5.362-0.531 5.363-3.482v-0.001zM2.347 8.864c0.001 0.439 0.198 0.86 0.548 1.171s0.823 0.486 1.318 0.487c0.494-0.001 0.968-0.176 1.318-0.487s0.547-0.732 0.548-1.171v-2.423s-3.731 0.37-3.731 2.423zM4.212 9.298c-0.097 0-0.191-0.025-0.271-0.073-0.078-0.046-0.14-0.112-0.179-0.192l-0.001-0.003c-0.023-0.049-0.037-0.106-0.037-0.166 0-0.030 0.003-0.059 0.010-0.087l-0.001 0.003c0.019-0.084 0.065-0.162 0.134-0.222s0.155-0.102 0.25-0.119c0.029-0.005 0.062-0.008 0.095-0.008 0.067 0 0.131 0.012 0.191 0.034l-0.004-0.001c0.089 0.033 0.166 0.089 0.219 0.16s0.082 0.155 0.082 0.241c0 0.057-0.012 0.114-0.037 0.167-0.026 0.055-0.062 0.102-0.105 0.141l-0 0c-0.045 0.041-0.099 0.073-0.159 0.095-0.056 0.021-0.12 0.033-0.187 0.033-0 0-0 0-0 0h0v-0.002zM7.982 9.059h-0.36v0.372h-0.188v-0.91h0.593v0.152h-0.405v0.235h0.36v0.151zM8.884 8.996c0 0.090-0.016 0.168-0.047 0.236s-0.077 0.119-0.137 0.156c-0.056 0.035-0.123 0.055-0.195 0.055-0.002 0-0.005-0-0.007-0h0c-0.076 0-0.143-0.018-0.202-0.054-0.060-0.037-0.107-0.090-0.136-0.153l-0.001-0.002c-0.031-0.066-0.049-0.143-0.049-0.225 0-0.003 0-0.006 0-0.008v0-0.045c0-0.090 0.016-0.169 0.048-0.236s0.078-0.121 0.137-0.157c0.059-0.037 0.127-0.055 0.202-0.055s0.143 0.018 0.202 0.055c0.059 0.036 0.105 0.089 0.137 0.157s0.049 0.146 0.049 0.236v0.041zM8.694 8.955c0-0.095-0.017-0.168-0.051-0.218-0.030-0.045-0.081-0.074-0.139-0.074-0.003 0-0.005 0-0.008 0h0c-0.002-0-0.005-0-0.007-0-0.057 0-0.108 0.029-0.138 0.073l-0 0.001c-0.034 0.049-0.051 0.12-0.052 0.215v0.044c0 0.093 0.017 0.165 0.051 0.216s0.083 0.077 0.148 0.077c0.002 0 0.005 0 0.007 0 0.057 0 0.108-0.029 0.137-0.073l0-0.001c0.034-0.050 0.051-0.122 0.051-0.216v-0.044zM9.492 9.192c0-0.002 0-0.003 0-0.005 0-0.031-0.015-0.058-0.037-0.076l-0-0c-0.025-0.019-0.070-0.039-0.135-0.060-0.060-0.019-0.111-0.040-0.16-0.065l0.005 0.003c-0.103-0.056-0.155-0.131-0.155-0.226 0-0.049 0.014-0.093 0.041-0.131s0.068-0.069 0.119-0.091c0.052-0.022 0.111-0.032 0.175-0.032s0.123 0.012 0.174 0.036c0.051 0.023 0.090 0.056 0.118 0.099s0.043 0.092 0.043 0.146h-0.188c0-0.042-0.013-0.074-0.039-0.097s-0.063-0.035-0.111-0.035c-0.046 0-0.082 0.010-0.107 0.029-0.023 0.017-0.038 0.044-0.038 0.074 0 0.001 0 0.001 0 0.002v-0c0 0.030 0.015 0.054 0.044 0.074s0.074 0.039 0.132 0.056c0.107 0.032 0.184 0.072 0.233 0.119s0.073 0.107 0.073 0.178c0 0.079-0.030 0.141-0.090 0.186s-0.14 0.067-0.24 0.067c-0.070 0-0.134-0.013-0.191-0.038-0.054-0.023-0.099-0.059-0.131-0.104l-0.001-0.001c-0.028-0.042-0.045-0.094-0.045-0.149 0-0.002 0-0.004 0-0.006v0h0.188c0 0.1 0.060 0.151 0.18 0.151 0.045 0 0.079-0.009 0.105-0.027 0.023-0.016 0.037-0.043 0.037-0.073 0-0.001-0-0.002-0-0.004v0zM10.492 8.673h-0.279v0.758h-0.188v-0.758h-0.275v-0.152h0.741v0.152zM11.147 9.036h-0.36v0.244h0.422v0.151h-0.61v-0.91h0.609v0.152h-0.421v0.217h0.36v0.147zM11.657 9.098h-0.149v0.333h-0.188v-0.91h0.338c0.108 0 0.191 0.024 0.249 0.072s0.087 0.116 0.087 0.203c0 0.062-0.013 0.114-0.041 0.156-0.030 0.044-0.072 0.078-0.12 0.098l-0.002 0.001 0.197 0.372v0.009h-0.201l-0.171-0.333zM11.507 8.946h0.151c0.047 0 0.083-0.012 0.109-0.035 0.024-0.024 0.039-0.056 0.039-0.092 0-0.002-0-0.005-0-0.007v0c0-0.043-0.012-0.077-0.037-0.101s-0.061-0.037-0.112-0.037h-0.151v0.273zM12.644 9.11v0.321h-0.188v-0.91h0.355c0.068 0 0.128 0.013 0.18 0.038s0.092 0.061 0.12 0.107c0.028 0.046 0.042 0.098 0.042 0.157 0 0.089-0.031 0.16-0.092 0.211s-0.145 0.077-0.253 0.077h-0.164zM12.644 8.958h0.167c0.050 0 0.087-0.012 0.113-0.035s0.039-0.057 0.039-0.1c0-0.002 0-0.004 0-0.007 0-0.039-0.015-0.075-0.040-0.102l0 0c-0.026-0.027-0.063-0.042-0.109-0.042h-0.172v0.286zM13.83 9.036h-0.36v0.244h0.422v0.151h-0.61v-0.91h0.609v0.152h-0.421v0.217h0.36v0.147zM14.7 8.673h-0.279v0.758h-0.188v-0.758h-0.275v-0.152h0.741v0.152zM15.355 9.036h-0.36v0.244h0.422v0.151h-0.61v-0.91h0.609v0.152h-0.421v0.217h0.36v0.147zM15.864 9.098h-0.149v0.333h-0.188v-0.91h0.338c0.108 0 0.19 0.024 0.249 0.072s0.087 0.116 0.087 0.203c0 0.062-0.014 0.114-0.041 0.156-0.030 0.044-0.072 0.078-0.12 0.098l-0.002 0.001 0.197 0.372v0.009h-0.201l-0.171-0.333zM15.715 8.946h0.151c0.047 0 0.083-0.012 0.109-0.035 0.024-0.024 0.039-0.056 0.039-0.093 0-0.002-0-0.005-0-0.007v0c0-0.043-0.012-0.077-0.037-0.101s-0.061-0.037-0.112-0.037h-0.151v0.273zM16.817 9.192c0-0.002 0-0.003 0-0.005 0-0.031-0.015-0.058-0.037-0.076l-0-0c-0.025-0.019-0.070-0.039-0.135-0.060-0.060-0.019-0.111-0.040-0.16-0.065l0.005 0.003c-0.103-0.056-0.155-0.131-0.155-0.226 0-0.049 0.014-0.093 0.041-0.131s0.068-0.069 0.119-0.091c0.052-0.022 0.11-0.032 0.175-0.032s0.123 0.012 0.174 0.036c0.051 0.023 0.090 0.056 0.118 0.099s0.043 0.092 0.043 0.146h-0.188c0-0.042-0.013-0.074-0.039-0.097s-0.063-0.035-0.11-0.035c-0.046 0-0.081 0.010-0.107 0.029-0.023 0.017-0.038 0.044-0.038 0.074 0 0.001 0 0.001 0 0.002v-0c0 0.030 0.015 0.054 0.045 0.074s0.074 0.039 0.132 0.056c0.107 0.032 0.184 0.072 0.233 0.119s0.073 0.107 0.073 0.178c0 0.079-0.030 0.141-0.090 0.186s-0.14 0.067-0.24 0.067c-0.070 0-0.134-0.013-0.191-0.038-0.054-0.023-0.099-0.059-0.131-0.104l-0.001-0.001c-0.028-0.042-0.045-0.094-0.045-0.149 0-0.002 0-0.004 0-0.006v0h0.188c0 0.1 0.060 0.151 0.18 0.151 0.045 0 0.079-0.009 0.104-0.027 0.023-0.016 0.038-0.043 0.038-0.073 0-0.001-0-0.002-0-0.004v0z"></path>
</symbol>
<symbol id="icon-Company5" viewBox="0 0 64 32">
<path fill="#afb1b8" style="fill: var(--color3, #afb1b8)" d="M5.708 9.543c0.052 0.059 0.080 0.133 0.078 0.208 0 0.005 0 0.010 0 0.016 0 0.047-0.010 0.091-0.029 0.13l0.001-0.002c-0.022 0.047-0.054 0.087-0.093 0.119l-0.001 0.001c-0.088 0.061-0.198 0.097-0.315 0.097-0.013 0-0.026-0-0.038-0.001l0.002 0h-0.62v-1.321h0.607c0.011-0.001 0.023-0.001 0.036-0.001 0.112 0 0.216 0.033 0.302 0.090l-0.002-0.001c0.039 0.030 0.070 0.068 0.091 0.111s0.030 0.090 0.027 0.137c0.003 0.073-0.021 0.144-0.070 0.202-0.047 0.052-0.112 0.089-0.185 0.103 0.082 0.014 0.156 0.054 0.209 0.113zM4.982 9.344h0.259c0.059 0.004 0.117-0.012 0.165-0.044 0.019-0.016 0.034-0.035 0.044-0.058l0-0.001c0.008-0.017 0.012-0.037 0.012-0.058 0-0.004-0-0.009-0.001-0.013l0 0.001c0-0.003 0-0.007 0-0.011 0-0.021-0.004-0.042-0.013-0.060l0 0.001c-0.010-0.023-0.025-0.043-0.043-0.059l-0-0c-0.042-0.028-0.094-0.045-0.149-0.045-0.007 0-0.014 0-0.022 0.001l0.001-0h-0.255v0.347zM5.431 9.851c0.020-0.016 0.036-0.036 0.047-0.060l0-0.001c0.009-0.019 0.014-0.040 0.014-0.063 0-0.004-0-0.007-0-0.011l0 0c0-0.003 0-0.006 0-0.010 0-0.024-0.005-0.046-0.015-0.066l0 0.001c-0.012-0.024-0.028-0.045-0.048-0.061l-0-0c-0.045-0.030-0.1-0.048-0.159-0.048-0.006 0-0.012 0-0.018 0.001l0.001-0h-0.272v0.363h0.276c0.062 0.003 0.123-0.013 0.174-0.046zM6.948 10.111l-0.337-0.516h-0.127v0.516h-0.29v-1.321h0.55c0.012-0.001 0.025-0.001 0.039-0.001 0.129 0 0.249 0.043 0.345 0.115l-0.002-0.001c0.077 0.072 0.123 0.166 0.131 0.266 0.001 0.008 0.001 0.018 0.001 0.028 0 0.096-0.034 0.185-0.091 0.253l0.001-0.001c-0.068 0.070-0.159 0.119-0.26 0.134l-0.003 0 0.359 0.528h-0.316zM6.484 9.415h0.237c0.165 0 0.247-0.067 0.247-0.2 0-0.003 0-0.007 0-0.011 0-0.025-0.005-0.049-0.014-0.071l0 0.001c-0.011-0.027-0.027-0.050-0.047-0.068l-0-0c-0.045-0.034-0.102-0.055-0.164-0.055-0.008 0-0.016 0-0.024 0.001l0.001-0h-0.24l0.003 0.402zM8.535 9.845h-0.579l-0.102 0.266h-0.304l0.531-1.306h0.329l0.529 1.306h-0.304l-0.1-0.266zM8.458 9.645l-0.211-0.557-0.211 0.557h0.423zM10.522 10.111h-0.288l-0.646-0.898v0.898h-0.288v-1.321h0.288l0.646 0.903v-0.903h0.288v1.321zM12.167 9.795c-0.060 0.1-0.15 0.181-0.261 0.233-0.112 0.053-0.243 0.084-0.382 0.084-0.008 0-0.017-0-0.025-0l0.001 0h-0.513v-1.321h0.513c0.007-0 0.016-0 0.024-0 0.138 0 0.269 0.030 0.387 0.084l-0.006-0.002c0.11 0.051 0.201 0.131 0.261 0.23 0.059 0.108 0.090 0.226 0.090 0.347s-0.031 0.239-0.090 0.346zM11.837 9.764c0.078-0.082 0.127-0.193 0.127-0.315v-0c0-0.116-0.045-0.227-0.127-0.315-0.089-0.071-0.204-0.113-0.328-0.113-0.012 0-0.023 0-0.035 0.001l0.002-0h-0.2v0.855h0.2c0.010 0.001 0.021 0.001 0.033 0.001 0.124 0 0.239-0.043 0.329-0.114l-0.001 0.001zM8.716 1.444s3.72 1.286 3.641 3.147v3.148s-3.718-1.286-3.64-3.148l-0.001-3.147zM15.671 7.001c0.703-0.443 1.515-0.717 2.364-0.797v-0.986c-0.977 0.345-1.807 0.971-2.364 1.783z"></path>
<path fill="#afb1b8" style="fill: var(--color3, #afb1b8)" d="M15.249 7.298c0.575-1.060 1.572-1.878 2.786-2.286v-2.839s-5.298 1.832-5.186 4.482v4.481s0.236-0.082 0.608-0.236c0-0.143 0-0.288 0.017-0.433 0.109-1.23 0.748-2.37 1.776-3.17z"></path>
<path fill="#afb1b8" style="fill: var(--color3, #afb1b8)" d="M14.746 8.963c0.028-0.311 0.090-0.618 0.185-0.918-0.64 0.69-1.027 1.547-1.108 2.449-0.008 0.085-0.012 0.17-0.014 0.258 0.442-0.193 0.777-0.358 1.104-0.534l-0.085 0.042c-0.094-0.427-0.122-0.864-0.082-1.298zM14.956 8.979c-0.010 0.109-0.016 0.236-0.016 0.364 0 0.287 0.030 0.567 0.086 0.838l-0.005-0.026c1.447-0.793 3.074-2.019 3.011-3.499v-0.129c-1.034 0.106-2.002 0.52-2.754 1.178-0.166 0.373-0.281 0.805-0.322 1.259l-0.001 0.016z"></path>
</symbol>
<symbol id="icon-Company6" viewBox="0 0 64 32">
<path fill="#afb1b8" style="fill: var(--color3, #afb1b8)" d="M11.397 5.847c-0.081-0.105-0.13-0.238-0.13-0.383 0-0.014 0-0.029 0.001-0.043l-0 0.002v-0.615c0-0.188 0.043-0.332 0.128-0.43s0.232-0.147 0.441-0.146c0.196 0 0.335 0.042 0.417 0.125 0.090 0.106 0.133 0.237 0.123 0.368v0.145h-0.35v-0.147c0.001-0.048-0.002-0.096-0.010-0.143-0.006-0.035-0.024-0.064-0.050-0.085l-0-0c-0.031-0.021-0.070-0.034-0.112-0.034-0.005 0-0.010 0-0.016 0.001l0.001-0c-0.005-0-0.010-0.001-0.015-0.001-0.044 0-0.085 0.013-0.119 0.036l0.001-0c-0.029 0.023-0.050 0.056-0.058 0.093l-0 0.001c-0.009 0.042-0.014 0.091-0.014 0.14 0 0.004 0 0.008 0 0.013v-0.001 0.746c-0.006 0.072 0.010 0.144 0.045 0.21 0.018 0.022 0.042 0.040 0.069 0.050l0.001 0c0.021 0.008 0.044 0.013 0.069 0.013 0.007 0 0.015-0 0.022-0.001l-0.001 0c0.004 0 0.010 0.001 0.015 0.001 0.041 0 0.079-0.013 0.11-0.035l-0.001 0c0.027-0.022 0.046-0.054 0.052-0.090l0-0.001c0.008-0.050 0.012-0.1 0.011-0.15v-0.151h0.35v0.138c0.001 0.011 0.001 0.024 0.001 0.037 0 0.133-0.046 0.255-0.123 0.351l0.001-0.001c-0.080 0.091-0.218 0.137-0.419 0.137s-0.354-0.049-0.44-0.15zM12.855 5.853c-0.089-0.096-0.133-0.235-0.133-0.42v-0.647c0-0.183 0.044-0.321 0.133-0.415s0.236-0.141 0.444-0.14c0.206 0 0.353 0.047 0.441 0.14s0.133 0.232 0.133 0.415v0.647c0 0.183-0.045 0.323-0.135 0.419s-0.236 0.144-0.44 0.144-0.354-0.049-0.444-0.144zM13.461 5.698c0.032-0.060 0.046-0.126 0.042-0.191v-0.792c0-0.006 0.001-0.014 0.001-0.021 0-0.061-0.015-0.118-0.043-0.168l0.001 0.002c-0.019-0.023-0.043-0.041-0.070-0.051l-0.001-0c-0.020-0.008-0.044-0.013-0.069-0.013-0.008 0-0.017 0.001-0.025 0.002l0.001-0c-0.007-0.001-0.015-0.001-0.024-0.001-0.025 0-0.048 0.005-0.070 0.013l0.001-0c-0.029 0.011-0.053 0.029-0.072 0.051l-0 0c-0.032 0.059-0.046 0.123-0.042 0.188v0.796c-0.004 0.066 0.010 0.132 0.042 0.192 0.020 0.020 0.046 0.036 0.074 0.047 0.027 0.011 0.058 0.017 0.090 0.017s0.063-0.006 0.092-0.018l-0.002 0.001c0.028-0.011 0.053-0.027 0.074-0.047v-0.004zM14.294 4.25h0.377l0.283 1.194 0.29-1.194h0.367l0.037 1.723h-0.271l-0.029-1.197-0.28 1.197h-0.218l-0.29-1.202-0.027 1.202h-0.274l0.034-1.723zM16.070 4.25h0.587c0.338 0 0.507 0.163 0.507 0.489 0 0.312-0.178 0.468-0.534 0.468h-0.2v0.766h-0.362l0.002-1.723zM16.572 4.987c0.036 0.004 0.072 0.001 0.107-0.008s0.066-0.025 0.093-0.046c0.042-0.058 0.060-0.127 0.052-0.195 0-0.006 0-0.012 0-0.019 0-0.049-0.006-0.096-0.019-0.141l0.001 0.004c-0.006-0.018-0.015-0.034-0.027-0.047l0 0c-0.013-0.014-0.028-0.026-0.045-0.034l-0.001-0c-0.042-0.018-0.091-0.028-0.143-0.028-0.007 0-0.013 0-0.020 0.001l0.001-0h-0.141v0.515h0.141zM17.687 4.25h0.389l0.399 1.723h-0.338l-0.079-0.397h-0.347l-0.081 0.397h-0.343l0.399-1.723zM18.020 5.377l-0.136-0.723-0.135 0.723h0.271zM18.798 4.25h0.254l0.485 0.983v-0.983h0.301v1.723h-0.241l-0.489-1.026v1.026h-0.311l0.001-1.723zM20.543 5.316l-0.404-1.063h0.34l0.246 0.683 0.231-0.683h0.333l-0.399 1.064v0.657h-0.348v-0.657zM11.957 6.727v0.090h-0.296v0.7h-0.124v-0.7h-0.297v-0.090h0.717zM12.884 7.517h-0.096c-0.001 0-0.002 0-0.003 0-0.009 0-0.017-0.003-0.024-0.008l0 0c-0.007-0.004-0.012-0.011-0.016-0.018l-0-0-0.086-0.188h-0.41l-0.085 0.188c-0.003 0.008-0.007 0.016-0.013 0.021v0c-0.007 0.005-0.015 0.008-0.025 0.008-0.001 0-0.002-0-0.002-0h-0.095l0.362-0.79h0.126l0.367 0.787zM12.284 7.224h0.342l-0.145-0.322c-0.009-0.020-0.018-0.045-0.026-0.070l-0.001-0.004c-0.005 0.015-0.009 0.029-0.014 0.042l-0.013 0.033-0.143 0.321zM13.508 7.439c0.023 0.001 0.045 0.001 0.068 0 0.019-0.002 0.039-0.005 0.058-0.009 0.018-0.004 0.035-0.009 0.052-0.014 0.016-0.006 0.032-0.013 0.048-0.019v-0.178h-0.145c-0 0-0.001 0-0.001 0-0.007 0-0.013-0.002-0.018-0.006l0 0c-0.002-0.002-0.004-0.004-0.005-0.006l-0-0c-0.001-0.002-0.002-0.005-0.002-0.007 0-0 0-0 0-0.001v0-0.061h0.281v0.303c-0.044 0.027-0.095 0.049-0.149 0.063l-0.004 0.001c-0.030 0.008-0.060 0.013-0.091 0.016-0.035 0.003-0.070 0.005-0.106 0.005-0.001 0-0.003 0-0.005 0-0.064 0-0.125-0.011-0.182-0.031l0.004 0.001c-0.056-0.019-0.104-0.047-0.146-0.083l0.001 0c-0.039-0.034-0.070-0.076-0.092-0.123l-0.001-0.002c-0.021-0.047-0.033-0.101-0.033-0.159 0-0.002 0-0.004 0-0.005v0c-0-0.001-0-0.003-0-0.005 0-0.058 0.012-0.113 0.034-0.163l-0.001 0.003c0.021-0.047 0.053-0.090 0.093-0.125s0.091-0.063 0.145-0.082c0.062-0.020 0.128-0.030 0.194-0.029 0.034 0 0.067 0.002 0.101 0.007 0.029 0.004 0.058 0.011 0.086 0.020 0.026 0.008 0.050 0.019 0.073 0.031s0.043 0.026 0.063 0.041l-0.035 0.049c-0.003 0.005-0.007 0.008-0.012 0.011l-0 0c-0.005 0.003-0.011 0.004-0.017 0.004h-0c-0.008-0-0.016-0.002-0.023-0.006l0 0c-0.015-0.007-0.026-0.013-0.038-0.020l0.002 0.001c-0.014-0.008-0.030-0.015-0.046-0.021l-0.002-0.001c-0.018-0.007-0.041-0.013-0.064-0.017l-0.003-0c-0.026-0.004-0.056-0.007-0.087-0.007-0.002 0-0.003 0-0.005 0h0c-0.001 0-0.003-0-0.004-0-0.049 0-0.095 0.008-0.139 0.023l0.003-0.001c-0.040 0.014-0.077 0.035-0.107 0.063-0.029 0.027-0.051 0.060-0.067 0.096l-0.001 0.002c-0.015 0.039-0.024 0.084-0.024 0.132s0.009 0.093 0.025 0.134l-0.001-0.003c0.016 0.037 0.041 0.071 0.073 0.1 0.030 0.027 0.066 0.048 0.106 0.063 0.046 0.014 0.095 0.019 0.144 0.016zM14.664 7.427h0.396v0.090h-0.516v-0.79h0.124l-0.003 0.7zM15.471 7.517h-0.124v-0.79h0.124v0.79zM15.932 6.731c0.007 0.004 0.014 0.008 0.019 0.014l0 0 0.53 0.596c-0-0.004-0.001-0.009-0.001-0.014s0-0.010 0.001-0.015l-0 0.001v-0.589h0.108v0.794h-0.062c-0.001 0-0.003 0-0.004 0-0.008 0-0.016-0.002-0.023-0.005l0 0c-0.008-0.004-0.014-0.009-0.019-0.015l-0-0-0.529-0.595v0.614h-0.104v-0.79h0.064c0.007 0 0.014 0.001 0.020 0.004zM17.501 6.727v0.087h-0.439v0.261h0.356v0.084h-0.356v0.27h0.439v0.087h-0.567v-0.788h0.567zM4.515 1.847l5.503 1.349v4.727l-5.503-1.348v-4.728zM4.162 1.443v5.36l6.208 1.522v-5.36l-6.208-1.523z"></path>
<path fill="#afb1b8" style="fill: var(--color3, #afb1b8)" d="M7.489 10.814l-6.209-1.524v-5.36l6.209 1.523v5.36z"></path>
<path fill="#afb1b8" style="fill: var(--color3, #afb1b8)" d="M4.265 1.786l5.431 1.332-2.31 1.995-5.432-1.333 2.31-1.994zM4.162 1.444l-2.881 2.487 6.209 1.523 2.881-2.488-6.208-1.523zM7.838 10.513l2.532-2.186-2.532-0.621v2.807z"></path>
</symbol>
<symbol id="icon-diagram" viewBox="0 0 64 32">
<path fill="#2196f3" style="fill: var(--color2, #2196f3)" d="M6.965 6.983h0.497v2.239h-0.497v-2.239zM8.955 7.979h0.498v1.244h-0.498v-1.244zM4.975 8.725h0.497v0.498h-0.497v-0.498zM3.483 8.476h0.498v0.746h-0.498v-0.746z"></path>
<path fill="#212121" style="fill: var(--color1, #212121)" d="M0.746 13.202h11.94c0 0 0 0 0 0 0.412 0 0.746-0.334 0.746-0.746v0-0.995c0-0.412-0.334-0.746-0.746-0.746v0h-0.249v-6.204l1.413-1.338c0.097 0.049 0.211 0.077 0.332 0.077 0.415 0 0.751-0.336 0.751-0.75s-0.336-0.75-0.751-0.75c-0.415 0-0.751 0.336-0.751 0.75 0 0.115 0.026 0.224 0.072 0.322l-0.002-0.005-1.065 1.009v-0.574c0-0.412-0.334-0.746-0.746-0.746v0h-9.95c-0.412 0-0.746 0.334-0.746 0.746v0 7.463h-0.249c-0.412 0-0.746 0.334-0.746 0.746v0 0.995c0 0.412 0.334 0.746 0.746 0.746v0zM14.179 2.257c0.137 0 0.249 0.111 0.249 0.249s-0.111 0.249-0.249 0.249v0c-0.137 0-0.249-0.111-0.249-0.249s0.111-0.249 0.249-0.249v0zM1.492 3.252c0-0.137 0.111-0.249 0.249-0.249h9.95c0.137 0 0.249 0.111 0.249 0.249v1.045l-0.498 0.473v-1.020c0-0.138-0.112-0.249-0.249-0.249h-8.955c-0.137 0-0.249 0.111-0.249 0.249v6.219c0 0.137 0.112 0.249 0.249 0.249h8.955c0.138 0 0.249-0.111 0.249-0.249v-4.515l0.498-0.471v5.732h-10.448v-7.462zM3.731 6.486c-0.001 0-0.001 0-0.002 0-0.412 0-0.746 0.334-0.746 0.746s0.334 0.746 0.746 0.746c0.202 0 0.385-0.080 0.519-0.21l-0 0 0.865 0.434c0.1 0.050 0.222 0.027 0.297-0.057l1.838-2.068 1.807 1.354c0.097 0.073 0.232 0.065 0.32-0.018l1.57-1.488v3.795h-8.458v-5.722h8.458v1.242l-1.76 1.667-1.822-1.366c-0.041-0.031-0.093-0.050-0.149-0.050-0.074 0-0.14 0.032-0.186 0.083l-0 0-1.863 2.097-0.697-0.348c0.005-0.030 0.008-0.060 0.009-0.090 0-0.412-0.334-0.746-0.746-0.746v0zM3.98 7.232c0 0.137-0.111 0.249-0.249 0.249s-0.249-0.111-0.249-0.249v0c0-0.137 0.111-0.249 0.249-0.249s0.249 0.111 0.249 0.249v0zM5.473 11.212h2.487v0.249c0 0.137-0.111 0.249-0.249 0.249h-1.99c-0.137 0-0.249-0.111-0.249-0.249v0-0.249zM0.498 11.461c0-0.137 0.111-0.249 0.249-0.249h4.229v0.249c0 0.412 0.334 0.746 0.746 0.746v0h1.99c0.412 0 0.746-0.334 0.746-0.746v0-0.249h4.229c0.137 0 0.249 0.111 0.249 0.249v0.995c0 0.137-0.111 0.249-0.249 0.249h-11.94c-0 0-0 0-0 0-0.137 0-0.249-0.111-0.249-0.249 0 0 0 0 0 0v0-0.995z"></path>
</symbol>
<symbol id="icon-Ellipse" viewBox="0 0 64 32">
<path fill="#fff" style="fill: var(--color4, #fff)" d="M9.387 4.693c0 0.002 0 0.004 0 0.006 0 1.294-0.525 2.466-1.375 3.313l-0 0c-0.847 0.849-2.019 1.375-3.313 1.375-0.002 0-0.004 0-0.006 0h0c-0.002 0-0.004 0-0.006 0-1.294 0-2.466-0.525-3.313-1.375l-0-0c-0.849-0.847-1.375-2.019-1.375-3.313 0-0.002 0-0.004 0-0.006v0c0-0.002 0-0.004 0-0.006 0-1.294 0.525-2.466 1.375-3.313l0-0c0.847-0.849 2.019-1.375 3.313-1.375 0.002 0 0.004 0 0.006 0h-0c0.002 0 0.004 0 0.006 0 1.294 0 2.466 0.525 3.313 1.375l0 0c0.849 0.847 1.375 2.019 1.375 3.313 0 0.002 0 0.004 0 0.006v-0z"></path>
</symbol>
<symbol id="icon-envelope" viewBox="0 0 64 32">
<path fill="#757575" style="fill: var(--color5, #757575)" d="M3.093 0h-2.773c-0.176 0-0.32 0.144-0.32 0.32v1.92c0 0.176 0.144 0.32 0.32 0.32h2.773c0.176 0 0.32-0.144 0.32-0.32v-1.92c0-0.176-0.144-0.32-0.32-0.32zM3.093 0.213c0.014 0 0.028 0.003 0.041 0.008l-1.428 1.237-1.428-1.237c0.012-0.005 0.026-0.008 0.041-0.008v0h2.773zM3.093 2.347h-2.773c-0.059 0-0.107-0.048-0.107-0.107v0-1.793l1.423 1.234c0.019 0.016 0.043 0.026 0.070 0.026s0.051-0.010 0.070-0.026l-0 0 1.423-1.234v1.793c0 0.059-0.048 0.107-0.107 0.107v0z"></path>
</symbol>
<symbol id="icon-facebook" viewBox="0 0 64 32">
<path fill="#fff" style="fill: var(--color4, #fff)" d="M2.844 0.708h0.39v-0.678c-0.164-0.019-0.355-0.030-0.548-0.030-0.007 0-0.014 0-0.021 0h0.001c-0.562 0-0.947 0.353-0.947 1.003v0.597h-0.62v0.758h0.62v1.908h0.76v-1.908h0.595l0.095-0.758h-0.689v-0.523c0-0.219 0.059-0.369 0.365-0.369z"></path>
</symbol>
<symbol id="icon-instagram" viewBox="0 0 32 32">
<path fill="#fff" style="fill: var(--color4, #fff)" d="M31.968 9.408c-0.074-1.701-0.349-2.869-0.742-3.882-0.424-1.111-1.054-2.059-1.85-2.837l-0.001-0.001c-0.78-0.792-1.724-1.419-2.778-1.827l-0.054-0.018c-1.019-0.394-2.181-0.667-3.882-0.742-1.712-0.082-2.256-0.101-6.602-0.101-4.344 0-4.888 0.019-6.595 0.094-1.699 0.074-2.869 0.349-3.88 0.742-1.112 0.424-2.060 1.054-2.839 1.85l-0.001 0.001c-0.791 0.78-1.418 1.724-1.825 2.778l-0.018 0.054c-0.395 1.019-0.669 2.181-0.744 3.882-0.082 1.712-0.101 2.256-0.101 6.602 0 4.344 0.019 4.888 0.094 6.595 0.075 1.701 0.35 2.869 0.744 3.882 0.426 1.11 1.055 2.057 1.849 2.837l0.001 0.001c0.8 0.813 1.77 1.443 2.832 1.843 1.019 0.395 2.182 0.67 3.882 0.744 1.707 0.075 2.251 0.094 6.595 0.094 4.346 0 4.89-0.019 6.595-0.094 1.701-0.074 2.869-0.349 3.882-0.742 2.157-0.85 3.833-2.526 4.664-4.628l0.019-0.055c0.394-1.019 0.669-2.182 0.744-3.882 0.075-1.707 0.093-2.251 0.093-6.595s-0.006-4.888-0.080-6.595zM29.088 22.474c-0.070 1.563-0.333 2.406-0.55 2.97-0.552 1.399-1.64 2.486-3.004 3.024l-0.036 0.012c-0.56 0.219-1.411 0.482-2.968 0.55-1.688 0.075-2.194 0.094-6.464 0.094-4.269 0-4.782-0.019-6.464-0.094-1.563-0.069-2.406-0.331-2.97-0.55-0.721-0.269-1.334-0.676-1.836-1.192l-0.001-0.001c-0.517-0.503-0.924-1.117-1.184-1.803l-0.011-0.034c-0.218-0.563-0.48-1.413-0.549-2.97-0.075-1.688-0.094-2.195-0.094-6.464 0-4.27 0.019-4.784 0.094-6.464 0.069-1.563 0.331-2.406 0.549-2.97 0.269-0.722 0.678-1.337 1.198-1.837l0.002-0.002c0.504-0.517 1.119-0.923 1.806-1.182l0.034-0.011c0.56-0.219 1.411-0.48 2.968-0.55 1.688-0.074 2.195-0.093 6.464-0.093 4.275 0 4.782 0.019 6.464 0.093 1.563 0.069 2.406 0.331 2.97 0.55 0.693 0.256 1.325 0.662 1.837 1.194 0.531 0.52 0.938 1.144 1.195 1.84 0.218 0.56 0.48 1.411 0.549 2.968 0.075 1.688 0.094 2.194 0.094 6.464 0 4.269-0.019 4.768-0.094 6.458z"></path>
<path fill="#fff" style="fill: var(--color4, #fff)" d="M16.059 7.782c-4.539 0.002-8.218 3.682-8.219 8.221v0c0 0 0 0.001 0 0.002 0 4.541 3.681 8.222 8.222 8.222s8.222-3.681 8.222-8.222c0-4.541-3.681-8.222-8.222-8.222-0.001 0-0.001 0-0.002 0h0zM16.059 21.334c-2.945-0-5.332-2.388-5.332-5.333s2.388-5.333 5.333-5.333c0 0 0.001 0 0.001 0h-0c2.946 0 5.334 2.388 5.334 5.334s-2.388 5.334-5.334 5.334v0zM26.525 7.458c0 1.060-0.86 1.92-1.92 1.92s-1.92-0.86-1.92-1.92v0c0-1.060 0.86-1.92 1.92-1.92s1.92 0.86 1.92 1.92v0z"></path>
</symbol>
<symbol id="icon-linkedin" viewBox="0 0 64 32">
<path fill="#fff" style="fill: var(--color4, #fff)" d="M4.266 4.267h0.001v-1.565c0-0.765-0.165-1.355-1.060-1.355-0.43 0-0.719 0.236-0.837 0.46h-0.012v-0.388h-0.849v2.848h0.884v-1.41c0-0.371 0.070-0.731 0.53-0.731 0.453 0 0.46 0.424 0.46 0.754v1.387h0.883zM0.070 1.418h0.885v2.849h-0.885v-2.849zM0.512 0c-0.283 0-0.512 0.229-0.512 0.512v0c0 0.283 0.23 0.517 0.512 0.517s0.512-0.234 0.512-0.517c-0-0.283-0.229-0.512-0.512-0.512h-0z"></path>
</symbol>
<symbol id="icon-smartphone" viewBox="0 0 64 32">
<path fill="#757575" style="fill: var(--color5, #757575)" d="M1.813 0h-1.493c-0.176 0-0.32 0.144-0.32 0.32v2.773c0 0.176 0.144 0.32 0.32 0.32h1.493c0.176 0 0.32-0.144 0.32-0.32v-2.773c0-0.176-0.144-0.32-0.32-0.32zM0.32 0.213h1.493c0.059 0 0.107 0.048 0.107 0.107v0 2.24h-1.707v-2.24c0-0.059 0.048-0.107 0.107-0.107v0zM1.813 3.2h-1.493c-0.059 0-0.107-0.048-0.107-0.107v0-0.32h1.707v0.32c0 0.059-0.048 0.107-0.107 0.107v0z"></path>
<path fill="#757575" style="fill: var(--color5, #757575)" d="M0.502 2.931c0.019 0.017 0.031 0.042 0.031 0.070s-0.012 0.053-0.031 0.070l-0 0c-0.020 0.018-0.046 0.029-0.076 0.029s-0.056-0.011-0.076-0.029l0 0c-0.019-0.017-0.031-0.042-0.031-0.070s0.012-0.053 0.031-0.070l0-0c0.020-0.018 0.046-0.029 0.076-0.029s0.056 0.011 0.076 0.029l-0-0z"></path>
</symbol>
<symbol id="icon-twitter" viewBox="0 0 64 32">
<path fill="#fff" style="fill: var(--color4, #fff)" d="M4.267 0.81c-0.147 0.066-0.317 0.114-0.495 0.137l-0.009 0.001c0.181-0.109 0.318-0.277 0.383-0.477l0.002-0.006c-0.16 0.096-0.345 0.17-0.543 0.21l-0.011 0.002c-0.16-0.171-0.387-0.277-0.638-0.277-0.483 0-0.874 0.392-0.874 0.874 0 0 0 0 0 0v-0c0 0.069 0.006 0.136 0.020 0.199-0.727-0.035-1.371-0.384-1.803-0.915-0.075 0.127-0.12 0.279-0.12 0.442v0c0 0.303 0.156 0.572 0.388 0.727-0.145-0.004-0.281-0.043-0.399-0.11l0.004 0.002v0.010c0 0.422 0.298 0.774 0.695 0.859l0.006 0.001c-0.067 0.018-0.143 0.029-0.222 0.029-0.003 0-0.005 0-0.008-0h0c-0.056 0-0.112-0.003-0.166-0.015 0.113 0.346 0.435 0.601 0.817 0.609-0.295 0.233-0.673 0.373-1.083 0.373-0.001 0-0.001 0-0.002 0h0c-0.002 0-0.005 0-0.008 0-0.071 0-0.141-0.005-0.209-0.013l0.008 0.001c0.377 0.246 0.838 0.393 1.334 0.393 0.003 0 0.006 0 0.008 0h-0c1.61 0 2.49-1.333 2.49-2.489 0-0.038-0.001-0.076-0.003-0.113 0.173-0.125 0.319-0.275 0.434-0.447l0.004-0.006z"></path>
</symbol>
</defs>
</svg>
